<svg width="185" height="185" viewBox="0 0 185 185" fill="none" xmlns="http://www.w3.org/2000/svg">
<g clip-path="url(#clip0_2774_32959)">
<path d="M150.972 0H33.3936C14.9508 0 0 14.9508 0 33.3936V150.972C0 169.415 14.9508 184.366 33.3936 184.366H150.972C169.415 184.366 184.366 169.415 184.366 150.972V33.3936C184.366 14.9508 169.415 0 150.972 0Z" fill="#34475A"/>
<path d="M31.3982 127.756C33.6105 122.479 36.09 116.644 39.1121 111.426C41.9589 106.509 45.0812 102.343 49.4725 98.6447C50.4576 97.8182 50.9585 97.4342 52.2191 96.591C53.3962 95.8063 54.6151 95.0967 55.8757 94.4705C56.1679 94.3286 56.4601 94.1867 56.7523 94.0531C56.769 94.0531 57.7374 93.6273 57.1614 93.8694C57.7624 93.6273 58.3635 93.4019 58.9813 93.2016C60.2085 92.7925 61.4608 92.4753 62.7381 92.2498C62.7715 92.2498 63.8234 92.0829 63.1555 92.1747C63.4811 92.133 63.8067 92.0996 64.1239 92.0745C64.7667 92.0161 65.4096 91.9827 66.0524 91.9743C67.4299 91.9493 68.8074 92.0328 70.1848 92.1998C69.4919 92.1163 70.5271 92.2582 70.5772 92.2582C70.8944 92.3083 71.2033 92.3667 71.5206 92.4252C72.1467 92.542 72.7728 92.6756 73.3906 92.8259C74.7514 93.1431 76.0871 93.5355 77.4145 93.9613C87.7331 97.2923 97.3672 103.086 108.454 103.495C119.541 103.904 130.944 97.9435 138.859 89.8789C148.534 80.0111 153.961 67.0294 159.237 54.4901C159.897 52.9206 158.527 50.8418 156.966 50.4912C155.063 50.0571 153.677 51.0756 152.967 52.762C151.974 55.1246 150.722 58.0799 149.536 60.7347C148.292 63.523 146.99 66.278 145.571 68.9829C144.152 71.6878 142.774 74.1004 141.18 76.5382C139.51 79.1011 138.041 81.1047 136.07 83.3254C132.355 87.533 128.665 90.5969 123.798 93.2099C123.214 93.5188 122.629 93.8193 122.028 94.1032C121.728 94.2451 121.427 94.3787 121.127 94.5123C120.158 94.9547 121.686 94.3119 120.693 94.6959C119.365 95.2135 118.029 95.681 116.66 96.04C116.026 96.207 115.391 96.3573 114.757 96.4908C114.44 96.5576 114.114 96.6161 113.797 96.6745C113.763 96.6745 112.703 96.8415 113.371 96.7496C111.96 96.9416 110.533 97.0168 109.113 96.9917C108.462 96.9834 107.811 96.95 107.168 96.8999C106.843 96.8749 106.525 96.8415 106.2 96.8081C106.158 96.8081 105.106 96.6578 105.782 96.758C104.505 96.566 103.236 96.3155 101.975 96.0066C99.3291 95.3554 96.7411 94.4705 94.1948 93.5021C89.1691 91.5903 84.2686 89.3279 79.151 87.6749C74.0334 86.0219 68.3398 84.9868 62.8382 85.6964C57.3367 86.406 51.8852 88.7101 47.3353 92.1079C36.0399 100.523 30.4131 113.405 25.1286 126.027C24.4691 127.605 25.8382 129.676 27.3993 130.026C29.3028 130.46 30.697 129.442 31.3982 127.756Z" fill="#F0603A"/>
<path d="M96.0566 46.9097H128.356C134.134 46.9097 138.809 51.5931 138.809 57.3618V120.075C138.809 129.851 131.445 137.465 121.06 137.465H96.0482V46.9097H96.0566ZM112.962 62.4878V121.77H120.943C121.427 121.77 121.786 120.926 121.786 120.075V62.4794H112.954L112.962 62.4878Z" fill="url(#paint0_linear_2774_32959)"/>
<path d="M56.0093 46.9097H62.4543V121.77H71.2869V46.9097H87.2239V121.77H96.0565V46.9097H112.962V137.465H56.0093C50.2322 137.465 45.5571 132.781 45.5571 127.012V57.3702C45.5571 51.5931 50.2406 46.918 56.0093 46.918V46.9097Z" fill="white"/>
<mask id="mask0_2774_32959" style="mask-type:luminance" maskUnits="userSpaceOnUse" x="118" y="75" width="26" height="29">
<path d="M141.096 76.0287C137.331 75.6614 132.898 75.102 129.208 76.7717C125.318 78.5332 121.068 81.8976 119.332 85.9299C117.829 89.4279 118.647 93.911 118.622 97.626C118.614 99.5127 118.338 101.408 120.058 102.627C122.538 104.388 127.029 103.428 129.926 103.428C134.81 103.428 138.274 102.485 141.063 98.2438C142.432 96.165 143.517 93.026 143.742 90.5382C144.185 85.4624 141.405 80.5452 141.104 76.0287C137.339 75.6614 141.413 80.5369 141.104 76.0287H141.096Z" fill="white"/>
</mask>
<g mask="url(#mask0_2774_32959)">
<path d="M96.0566 46.9097H128.356C134.134 46.9097 138.809 51.5931 138.809 57.3618V120.075C138.809 129.851 131.445 137.465 121.06 137.465H96.0482V46.9097H96.0566ZM112.962 62.4878V121.77H120.943C121.427 121.77 121.786 120.926 121.786 120.075V62.4794H112.954L112.962 62.4878Z" fill="url(#paint1_linear_2774_32959)"/>
<path d="M31.3982 127.756C33.6105 122.479 36.09 116.644 39.1121 111.426C41.9589 106.509 45.0812 102.343 49.4725 98.6447C50.4576 97.8182 50.9585 97.4342 52.2191 96.591C53.3962 95.8063 54.6151 95.0967 55.8757 94.4705C56.1679 94.3286 56.4601 94.1867 56.7523 94.0531C56.769 94.0531 57.7374 93.6273 57.1614 93.8694C57.7624 93.6273 58.3635 93.4019 58.9813 93.2016C60.2085 92.7925 61.4608 92.4753 62.7381 92.2498C62.7715 92.2498 63.8234 92.0829 63.1555 92.1747C63.4811 92.133 63.8067 92.0996 64.1239 92.0745C64.7667 92.0161 65.4096 91.9827 66.0524 91.9743C67.4299 91.9493 68.8074 92.0328 70.1848 92.1998C69.4919 92.1163 70.5271 92.2582 70.5772 92.2582C70.8944 92.3083 71.2033 92.3667 71.5206 92.4252C72.1467 92.542 72.7728 92.6756 73.3906 92.8259C74.7514 93.1431 76.0871 93.5355 77.4145 93.9613C87.7331 97.2923 97.3672 103.086 108.454 103.495C119.541 103.904 130.944 97.9435 138.859 89.8789C148.534 80.0111 153.961 67.0294 159.237 54.4901C159.897 52.9206 158.527 50.8418 156.966 50.4912C155.063 50.0571 153.677 51.0756 152.967 52.762C151.974 55.1246 150.722 58.0799 149.536 60.7347C148.292 63.523 146.99 66.278 145.571 68.9829C144.152 71.6878 142.774 74.1004 141.18 76.5382C139.51 79.1011 138.041 81.1047 136.07 83.3254C132.355 87.533 128.665 90.5969 123.798 93.2099C123.214 93.5188 122.629 93.8193 122.028 94.1032C121.728 94.2451 121.427 94.3787 121.127 94.5123C120.158 94.9547 121.686 94.3119 120.693 94.6959C119.365 95.2135 118.029 95.681 116.66 96.04C116.026 96.207 115.391 96.3573 114.757 96.4908C114.44 96.5576 114.114 96.6161 113.797 96.6745C113.763 96.6745 112.703 96.8415 113.371 96.7496C111.96 96.9416 110.533 97.0168 109.113 96.9917C108.462 96.9834 107.811 96.95 107.168 96.8999C106.843 96.8749 106.525 96.8415 106.2 96.8081C106.158 96.8081 105.106 96.6578 105.782 96.758C104.505 96.566 103.236 96.3155 101.975 96.0066C99.3291 95.3554 96.7411 94.4705 94.1948 93.5021C89.1691 91.5903 84.2686 89.3279 79.151 87.6749C74.0334 86.0219 68.3398 84.9868 62.8382 85.6964C57.3367 86.406 51.8852 88.7101 47.3353 92.1079C36.0399 100.523 30.4131 113.405 25.1286 126.027C24.4691 127.605 25.8382 129.676 27.3993 130.026C29.3028 130.46 30.697 129.442 31.3982 127.756Z" fill="#F0603A"/>
</g>
<mask id="mask1_2774_32959" style="mask-type:luminance" maskUnits="userSpaceOnUse" x="67" y="79" width="27" height="23">
<path d="M88.0671 81.6474C84.16 80.4786 81.4969 79.1261 77.2476 79.5686C73.8331 79.9276 71.3286 81.447 69.6339 84.6528C68.5569 86.6898 67.4215 90.4215 68.031 92.8008C69.0328 96.6661 73.1736 99.3042 76.6882 100.456C79.2846 101.308 84.1433 102.151 86.8315 101.216C89.2693 100.373 91.4899 97.6095 92.6337 95.4139C94.3451 92.1246 93.5687 87.7333 91.5066 84.753C89.6032 81.998 86.7564 80.729 88.0504 81.6474C84.1433 80.4786 86.7647 80.729 88.0504 81.6474H88.0671Z" fill="white"/>
</mask>
<g mask="url(#mask1_2774_32959)">
<path d="M56.0093 46.9097H62.4543V121.77H71.2869V46.9097H87.2239V121.77H96.0565V46.9097H112.962V137.465H56.0093C50.2322 137.465 45.5571 132.781 45.5571 127.012V57.3702C45.5571 51.5931 50.2406 46.918 56.0093 46.918V46.9097Z" fill="white"/>
<path d="M31.3982 127.756C33.6105 122.479 36.09 116.644 39.1121 111.426C41.9589 106.509 45.0812 102.343 49.4725 98.6447C50.4576 97.8182 50.9585 97.4342 52.2191 96.591C53.3962 95.8063 54.6151 95.0967 55.8757 94.4705C56.1679 94.3286 56.4601 94.1867 56.7523 94.0531C56.769 94.0531 57.7374 93.6273 57.1614 93.8694C57.7624 93.6273 58.3635 93.4019 58.9813 93.2016C60.2085 92.7925 61.4608 92.4753 62.7381 92.2498C62.7715 92.2498 63.8234 92.0829 63.1555 92.1747C63.4811 92.133 63.8067 92.0996 64.1239 92.0745C64.7667 92.0161 65.4096 91.9827 66.0524 91.9743C67.4299 91.9493 68.8074 92.0328 70.1848 92.1998C69.4919 92.1163 70.5271 92.2582 70.5772 92.2582C70.8944 92.3083 71.2033 92.3667 71.5206 92.4252C72.1467 92.542 72.7728 92.6756 73.3906 92.8259C74.7514 93.1431 76.0871 93.5355 77.4145 93.9613C87.7331 97.2923 97.3672 103.086 108.454 103.495C119.541 103.904 130.944 97.9435 138.859 89.8789C148.534 80.0111 153.961 67.0294 159.237 54.4901C159.897 52.9206 158.527 50.8418 156.966 50.4912C155.063 50.0571 153.677 51.0756 152.967 52.762C151.974 55.1246 150.722 58.0799 149.536 60.7347C148.292 63.523 146.99 66.278 145.571 68.9829C144.152 71.6878 142.774 74.1004 141.18 76.5382C139.51 79.1011 138.041 81.1047 136.07 83.3254C132.355 87.533 128.665 90.5969 123.798 93.2099C123.214 93.5188 122.629 93.8193 122.028 94.1032C121.728 94.2451 121.427 94.3787 121.127 94.5123C120.158 94.9547 121.686 94.3119 120.693 94.6959C119.365 95.2135 118.029 95.681 116.66 96.04C116.026 96.207 115.391 96.3573 114.757 96.4908C114.44 96.5576 114.114 96.6161 113.797 96.6745C113.763 96.6745 112.703 96.8415 113.371 96.7496C111.96 96.9416 110.533 97.0168 109.113 96.9917C108.462 96.9834 107.811 96.95 107.168 96.8999C106.843 96.8749 106.525 96.8415 106.2 96.8081C106.158 96.8081 105.106 96.6578 105.782 96.758C104.505 96.566 103.236 96.3155 101.975 96.0066C99.3291 95.3554 96.7411 94.4705 94.1948 93.5021C89.1691 91.5903 84.2686 89.3279 79.151 87.6749C74.0334 86.0219 68.3398 84.9868 62.8382 85.6964C57.3367 86.406 51.8852 88.7101 47.3353 92.1079C36.0399 100.523 30.4131 113.405 25.1286 126.027C24.4691 127.605 25.8382 129.676 27.3993 130.026C29.3028 130.46 30.697 129.442 31.3982 127.756Z" fill="#F0603A"/>
</g>
</g>
<defs>
<linearGradient id="paint0_linear_2774_32959" x1="96.0566" y1="92.183" x2="138.817" y2="92.183" gradientUnits="userSpaceOnUse">
<stop offset="0.22" stop-color="#0D1200"/>
<stop offset="0.26" stop-color="#2F3424"/>
<stop offset="0.34" stop-color="#73766C"/>
<stop offset="0.41" stop-color="#A8AAA4"/>
<stop offset="0.47" stop-color="#CFD0CD"/>
<stop offset="0.52" stop-color="#E7E7E6"/>
<stop offset="0.55" stop-color="#F0F0F0"/>
</linearGradient>
<linearGradient id="paint1_linear_2774_32959" x1="96.0566" y1="92.183" x2="138.817" y2="92.183" gradientUnits="userSpaceOnUse">
<stop offset="0.22" stop-color="#0D1200"/>
<stop offset="0.26" stop-color="#2F3424"/>
<stop offset="0.34" stop-color="#73766C"/>
<stop offset="0.41" stop-color="#A8AAA4"/>
<stop offset="0.47" stop-color="#CFD0CD"/>
<stop offset="0.52" stop-color="#E7E7E6"/>
<stop offset="0.55" stop-color="#F0F0F0"/>
</linearGradient>
<clipPath id="clip0_2774_32959">
<rect width="184.366" height="184.366" fill="white"/>
</clipPath>
</defs>
</svg>
